<svg width="24" height="24" viewBox="0 0 24 24" fill="none" xmlns="http://www.w3.org/2000/svg">
<path d="M14.5 9.5C14.5 8.1 13.4 7 12 7C10.6 7 9.5 8.1 9.5 9.5V13.5H14.5V9.5Z" fill="#ec1313"/>
<path d="M12 2C11.5 2 11 2.8 11 4C11 5.2 12 6.5 12 6.5C12 6.5 13 5.2 13 4C13 2.8 12.5 2 12 2Z" fill="#ec1313"/>
<path d="M21 14H3V20C3 21.1 3.9 22 5 22H19C20.1 22 21 21.1 21 20V14Z" fill="#ec1313"/>
<path d="M21 14H3V16.5C3 16.5 4.5 15.5 7 17.5C9.5 19.5 11 16.5 12 16.5C13 16.5 14.5 19.5 17 17.5C19.5 15.5 21 16.5 21 16.5V14Z" fill="#ec1313"/>
</svg>
